ISO-10303-21;
HEADER;
FILE_DESCRIPTION (( 'STEP AP214' ),
    '1' );
FILE_NAME ('TO-220.STEP',
    '2021-05-31T09:31:11',
    ( '' ),
    ( '' ),
    'SwSTEP 2.0',
    'SolidWorks 2020',
    '' );
FILE_SCHEMA (( 'AUTOMOTIVE_DESIGN' ));
ENDSEC;

DATA;
#1 = DIRECTION ( 'NONE',  ( 0.000000000000000000, 1.000000000000000000, 0.000000000000000000 ) ) ;
#2 = ORIENTED_EDGE ( 'NONE', *, *, #11, .F. ) ;
#3 = EDGE_CURVE ( 'NONE', #100, #43, #157, .T. ) ;
#4 = CARTESIAN_POINT ( 'NONE',  ( -4.499999999999994671, 0.2999999999999999889, -1.600000000000000089 ) ) ;
#5 = VERTEX_POINT ( 'NONE', #182 ) ;
#6 = EDGE_LOOP ( 'NONE', ( #212, #26, #128, #101 ) ) ;
#7 =( GEOMETRIC_REPRESENTATION_CONTEXT ( 3 ) GLOBAL_UNCERTAINTY_ASSIGNED_CONTEXT ( ( #217 ) ) GLOBAL_UNIT_ASSIGNED_CONTEXT ( ( #25, #88, #46 ) ) REPRESENTATION_CONTEXT ( 'NONE', 'WORKASPACE' ) );
#8 = PRODUCT_CONTEXT ( 'NONE', #149, 'mechanical' ) ;
#9 = ORIENTED_EDGE ( 'NONE', *, *, #236, .F. ) ;
#10 = CYLINDRICAL_SURFACE ( 'NONE', #41, 1.600000000000000089 ) ;
#11 = EDGE_CURVE ( 'NONE', #249, #65, #83, .T. ) ;
#12 = LINE ( 'NONE', #13, #200 ) ;
#13 = CARTESIAN_POINT ( 'NONE',  ( -9.499999999999994671, 0.000000000000000000, -6.599999999999999645 ) ) ;
#14 = AXIS2_PLACEMENT_3D ( 'NONE', #57, #240, #74 ) ;
#15 = DIRECTION ( 'NONE',  ( -0.000000000000000000, -1.000000000000000000, -0.000000000000000000 ) ) ;
#16 = VECTOR ( 'NONE', #116, 1000.000000000000000 ) ;
#17 = VECTOR ( 'NONE', #186, 1000.000000000000000 ) ;
#18 = FILL_AREA_STYLE ('',( #225 ) ) ;
#19 = FACE_OUTER_BOUND ( 'NONE', #51, .T. ) ;
#20 = PRODUCT ( 'TO-220', 'TO-220', '', ( #8 ) ) ;
#21 = ORIENTED_EDGE ( 'NONE', *, *, #80, .F. ) ;
#22 = ADVANCED_FACE ( 'NONE', ( #260 ), #10, .F. ) ;
#23 = FACE_OUTER_BOUND ( 'NONE', #174, .T. ) ;
#24 = DIRECTION ( 'NONE',  ( 0.000000000000000000, 0.000000000000000000, 1.000000000000000000 ) ) ;
#25 =( LENGTH_UNIT ( ) NAMED_UNIT ( * ) SI_UNIT ( .MILLI., .METRE. ) );
#26 = ORIENTED_EDGE ( 'NONE', *, *, #219, .F. ) ;
#27 = DIRECTION ( 'NONE',  ( 0.000000000000000000, 1.000000000000000000, 0.000000000000000000 ) ) ;
#28 = ORIENTED_EDGE ( 'NONE', *, *, #265, .T. ) ;
#29 = EDGE_CURVE ( 'NONE', #115, #233, #222, .T. ) ;
#30 = ORIENTED_EDGE ( 'NONE', *, *, #181, .T. ) ;
#31 = ORIENTED_EDGE ( 'NONE', *, *, #44, .T. ) ;
#32 = CARTESIAN_POINT ( 'NONE',  ( -4.499999999999994671, 0.000000000000000000, -1.600000000000000089 ) ) ;
#33 = DIRECTION ( 'NONE',  ( 0.000000000000000000, 0.000000000000000000, 1.000000000000000000 ) ) ;
#34 = DIRECTION ( 'NONE',  ( -1.000000000000000000, 0.000000000000000000, 0.000000000000000000 ) ) ;
#35 = CARTESIAN_POINT ( 'NONE',  ( -9.499999999999994671, 0.000000000000000000, 6.599999999999999645 ) ) ;
#36 = CARTESIAN_POINT ( 'NONE',  ( 9.500000000000005329, 0.2999999999999999889, 6.599999999999999645 ) ) ;
#37 = CARTESIAN_POINT ( 'NONE',  ( 0.000000000000000000, 0.000000000000000000, 0.000000000000000000 ) ) ;
#38 = PLANE ( 'NONE',  #276 ) ;
#39 = ORIENTED_EDGE ( 'NONE', *, *, #29, .T. ) ;
#40 =( GEOMETRIC_REPRESENTATION_CONTEXT ( 3 ) GLOBAL_UNCERTAINTY_ASSIGNED_CONTEXT ( ( #158 ) ) GLOBAL_UNIT_ASSIGNED_CONTEXT ( ( #169, #87, #63 ) ) REPRESENTATION_CONTEXT ( 'NONE', 'WORKASPACE' ) );
#41 = AXIS2_PLACEMENT_3D ( 'NONE', #77, #49, #134 ) ;
#42 = DIRECTION ( 'NONE',  ( 1.000000000000000000, 0.000000000000000000, -0.000000000000000000 ) ) ;
#43 = VERTEX_POINT ( 'NONE', #96 ) ;
#44 = EDGE_CURVE ( 'NONE', #233, #180, #263, .T. ) ;
#45 = FACE_OUTER_BOUND ( 'NONE', #264, .T. ) ;
#46 =( NAMED_UNIT ( * ) SI_UNIT ( $, .STERADIAN. ) SOLID_ANGLE_UNIT ( ) );
#47 = ORIENTED_EDGE ( 'NONE', *, *, #244, .T. ) ;
#48 =( NAMED_UNIT ( * ) PLANE_ANGLE_UNIT ( ) SI_UNIT ( $, .RADIAN. ) );
#49 = DIRECTION ( 'NONE',  ( -0.000000000000000000, -1.000000000000000000, -0.000000000000000000 ) ) ;
#50 = EDGE_CURVE ( 'NONE', #233, #139, #140, .T. ) ;
#51 = EDGE_LOOP ( 'NONE', ( #39, #31, #239, #75 ) ) ;
#52 = SHAPE_DEFINITION_REPRESENTATION ( #136, #205 ) ;
#53 = VECTOR ( 'NONE', #15, 1000.000000000000000 ) ;
#54 = DIRECTION ( 'NONE',  ( 1.000000000000000000, 0.000000000000000000, 0.000000000000000000 ) ) ;
#55 = COLOUR_RGB ( '',1.000000000000000000, 1.000000000000000000, 1.000000000000000000 ) ;
#56 = ADVANCED_FACE ( 'NONE', ( #59 ), #107, .F. ) ;
#57 = CARTESIAN_POINT ( 'NONE',  ( 0.000000000000000000, 0.000000000000000000, 0.000000000000000000 ) ) ;
#58 = ORIENTED_EDGE ( 'NONE', *, *, #203, .F. ) ;
#59 = FACE_OUTER_BOUND ( 'NONE', #199, .T. ) ;
#60 = PLANE ( 'NONE',  #269 ) ;
#61 = CARTESIAN_POINT ( 'NONE',  ( 9.500000000000005329, 0.000000000000000000, 6.599999999999999645 ) ) ;
#62 = DIRECTION ( 'NONE',  ( 1.000000000000000000, -0.000000000000000000, 0.000000000000000000 ) ) ;
#63 =( NAMED_UNIT ( * ) SI_UNIT ( $, .STERADIAN. ) SOLID_ANGLE_UNIT ( ) );
#64 = FILL_AREA_STYLE_COLOUR ( '', #238 ) ;
#65 = VERTEX_POINT ( 'NONE', #142 ) ;
#66 = DIRECTION ( 'NONE',  ( -0.000000000000000000, -1.000000000000000000, -0.000000000000000000 ) ) ;
#67 = ORIENTED_EDGE ( 'NONE', *, *, #181, .F. ) ;
#68 = CIRCLE ( 'NONE', #220, 1.600000000000000089 ) ;
#69 = AXIS2_PLACEMENT_3D ( 'NONE', #201, #160, #78 ) ;
#70 = CARTESIAN_POINT ( 'NONE',  ( -9.499999999999994671, 0.2999999999999999889, -6.599999999999999645 ) ) ;
#71 = VERTEX_POINT ( 'NONE', #32 ) ;
#72 = LINE ( 'NONE', #194, #189 ) ;
#73 = EDGE_LOOP ( 'NONE', ( #47, #30 ) ) ;
#74 = DIRECTION ( 'NONE',  ( 1.000000000000000000, 0.000000000000000000, 0.000000000000000000 ) ) ;
#75 = ORIENTED_EDGE ( 'NONE', *, *, #97, .T. ) ;
#76 = SURFACE_STYLE_USAGE ( .BOTH. , #258 ) ;
#77 = CARTESIAN_POINT ( 'NONE',  ( -4.499999999999994671, 0.2999999999999999889, 0.000000000000000000 ) ) ;
#78 = DIRECTION ( 'NONE',  ( 0.000000000000000000, 0.000000000000000000, 1.000000000000000000 ) ) ;
#79 = CARTESIAN_POINT ( 'NONE',  ( 9.500000000000005329, 0.000000000000000000, -6.599999999999999645 ) ) ;
#80 = EDGE_CURVE ( 'NONE', #65, #259, #122, .T. ) ;
#81 = VECTOR ( 'NONE', #54, 1000.000000000000000 ) ;
#82 = DIRECTION ( 'NONE',  ( -1.000000000000000000, -0.000000000000000000, -0.000000000000000000 ) ) ;
#83 = CIRCLE ( 'NONE', #69, 1.600000000000000089 ) ;
#84 = CARTESIAN_POINT ( 'NONE',  ( -9.499999999999994671, 0.2999999999999999889, 6.599999999999999645 ) ) ;
#85 = PRODUCT_DEFINITION_FORMATION_WITH_SPECIFIED_SOURCE ( 'ANY', '', #20, .NOT_KNOWN. ) ;
#86 = DIRECTION ( 'NONE',  ( 0.000000000000000000, 0.000000000000000000, -1.000000000000000000 ) ) ;
#87 =( NAMED_UNIT ( * ) PLANE_ANGLE_UNIT ( ) SI_UNIT ( $, .RADIAN. ) );
#88 =( NAMED_UNIT ( * ) PLANE_ANGLE_UNIT ( ) SI_UNIT ( $, .RADIAN. ) );
#89 = CARTESIAN_POINT ( 'NONE',  ( -4.499999999999994671, 0.2999999999999999889, -1.600000000000000089 ) ) ;
#90 = FACE_BOUND ( 'NONE', #73, .T. ) ;
#91 = VECTOR ( 'NONE', #124, 1000.000000000000000 ) ;
#92 = AXIS2_PLACEMENT_3D ( 'NONE', #227, #62, #86 ) ;
#93 = CARTESIAN_POINT ( 'NONE',  ( -4.499999999999994671, 0.2999999999999999889, 0.000000000000000000 ) ) ;
#94 = ORIENTED_EDGE ( 'NONE', *, *, #219, .T. ) ;
#95 =( LENGTH_UNIT ( ) NAMED_UNIT ( * ) SI_UNIT ( .MILLI., .METRE. ) );
#96 = CARTESIAN_POINT ( 'NONE',  ( 9.500000000000005329, 0.000000000000000000, 6.599999999999999645 ) ) ;
#97 = EDGE_CURVE ( 'NONE', #5, #115, #187, .T. ) ;
#98 = ORIENTED_EDGE ( 'NONE', *, *, #3, .F. ) ;
#99 = MECHANICAL_DESIGN_GEOMETRIC_PRESENTATION_REPRESENTATION (  '', ( #250 ), #202 ) ;
#100 = VERTEX_POINT ( 'NONE', #35 ) ;
#101 = ORIENTED_EDGE ( 'NONE', *, *, #50, .T. ) ;
#102 = MANIFOLD_SOLID_BREP ( 'Boss-Extrude1', #241 ) ;
#103 = DIRECTION ( 'NONE',  ( 0.000000000000000000, -1.000000000000000000, 0.000000000000000000 ) ) ;
#104 = VECTOR ( 'NONE', #66, 1000.000000000000000 ) ;
#105 = DIRECTION ( 'NONE',  ( 0.000000000000000000, 0.000000000000000000, -1.000000000000000000 ) ) ;
#106 = VECTOR ( 'NONE', #126, 1000.000000000000000 ) ;
#107 = PLANE ( 'NONE',  #92 ) ;
#108 = EDGE_CURVE ( 'NONE', #139, #192, #12, .T. ) ;
#109 = PRESENTATION_STYLE_ASSIGNMENT (( #224 ) ) ;
#110 = ORIENTED_EDGE ( 'NONE', *, *, #236, .T. ) ;
#111 = ORIENTED_EDGE ( 'NONE', *, *, #234, .F. ) ;
#112 = PRODUCT_DEFINITION ( 'UNKNOWN', '', #85, #154 ) ;
#113 = EDGE_LOOP ( 'NONE', ( #144, #58, #257, #110 ) ) ;
#114 = LINE ( 'NONE', #89, #178 ) ;
#115 = VERTEX_POINT ( 'NONE', #36 ) ;
#116 = DIRECTION ( 'NONE',  ( 0.000000000000000000, 0.000000000000000000, -1.000000000000000000 ) ) ;
#117 = UNCERTAINTY_MEASURE_WITH_UNIT (LENGTH_MEASURE( 1.000000000000000082E-05 ), #95, 'distance_accuracy_value', 'NONE');
#118 = EDGE_CURVE ( 'NONE', #192, #100, #125, .T. ) ;
#119 = CARTESIAN_POINT ( 'NONE',  ( -9.499999999999994671, 0.2999999999999999889, -6.599999999999999645 ) ) ;
#120 = ADVANCED_FACE ( 'NONE', ( #19, #191 ), #271, .F. ) ;
#121 = LINE ( 'NONE', #167, #147 ) ;
#122 = LINE ( 'NONE', #204, #53 ) ;
#123 = VECTOR ( 'NONE', #168, 1000.000000000000000 ) ;
#124 = DIRECTION ( 'NONE',  ( -0.000000000000000000, -1.000000000000000000, -0.000000000000000000 ) ) ;
#125 = LINE ( 'NONE', #209, #17 ) ;
#126 = DIRECTION ( 'NONE',  ( -0.000000000000000000, -1.000000000000000000, -0.000000000000000000 ) ) ;
#127 = DIRECTION ( 'NONE',  ( 0.000000000000000000, -1.000000000000000000, 0.000000000000000000 ) ) ;
#128 = ORIENTED_EDGE ( 'NONE', *, *, #44, .F. ) ;
#129 = ORIENTED_EDGE ( 'NONE', *, *, #11, .T. ) ;
#130 = DIRECTION ( 'NONE',  ( -0.000000000000000000, -1.000000000000000000, -0.000000000000000000 ) ) ;
#131 = ORIENTED_EDGE ( 'NONE', *, *, #203, .T. ) ;
#132 = CARTESIAN_POINT ( 'NONE',  ( -4.499999999999994671, 0.000000000000000000, 0.000000000000000000 ) ) ;
#133 = ORIENTED_EDGE ( 'NONE', *, *, #50, .F. ) ;
#134 = DIRECTION ( 'NONE',  ( 0.000000000000000000, 0.000000000000000000, -1.000000000000000000 ) ) ;
#135 = PRESENTATION_LAYER_ASSIGNMENT (  '', '', ( #250 ) ) ;
#136 = PRODUCT_DEFINITION_SHAPE ( 'NONE', 'NONE',  #112 ) ;
#137 = PRESENTATION_LAYER_ASSIGNMENT (  '', '', ( #221 ) ) ;
#138 = CARTESIAN_POINT ( 'NONE',  ( 9.500000000000005329, 0.2999999999999999889, 6.599999999999999645 ) ) ;
#139 = VERTEX_POINT ( 'NONE', #79 ) ;
#140 = LINE ( 'NONE', #165, #91 ) ;
#141 = CARTESIAN_POINT ( 'NONE',  ( 9.500000000000005329, 0.2999999999999999889, 6.599999999999999645 ) ) ;
#142 = CARTESIAN_POINT ( 'NONE',  ( -4.499999999999994671, 0.2999999999999999889, 1.600000000000000089 ) ) ;
#143 = DIRECTION ( 'NONE',  ( 0.000000000000000000, -0.000000000000000000, -1.000000000000000000 ) ) ;
#144 = ORIENTED_EDGE ( 'NONE', *, *, #3, .T. ) ;
#145 = CARTESIAN_POINT ( 'NONE',  ( -4.499999999999994671, 0.2999999999999999889, 0.000000000000000000 ) ) ;
#146 = AXIS2_PLACEMENT_3D ( 'NONE', #84, #173, #253 ) ;
#147 = VECTOR ( 'NONE', #246, 1000.000000000000000 ) ;
#148 = DIRECTION ( 'NONE',  ( 0.000000000000000000, 0.000000000000000000, 1.000000000000000000 ) ) ;
#149 = APPLICATION_CONTEXT ( 'automotive_design' ) ;
#150 = ORIENTED_EDGE ( 'NONE', *, *, #29, .F. ) ;
#151 = ADVANCED_FACE ( 'NONE', ( #245 ), #60, .F. ) ;
#152 = PLANE ( 'NONE',  #162 ) ;
#153 = ORIENTED_EDGE ( 'NONE', *, *, #265, .F. ) ;
#154 = PRODUCT_DEFINITION_CONTEXT ( 'detailed design', #262, 'design' ) ;
#155 = ORIENTED_EDGE ( 'NONE', *, *, #234, .T. ) ;
#156 = PRESENTATION_STYLE_ASSIGNMENT (( #76 ) ) ;
#157 = LINE ( 'NONE', #237, #81 ) ;
#158 = UNCERTAINTY_MEASURE_WITH_UNIT (LENGTH_MEASURE( 1.000000000000000082E-05 ), #169, 'distance_accuracy_value', 'NONE');
#159 = APPLICATION_PROTOCOL_DEFINITION ( 'draft international standard', 'automotive_design', 1998, #262 ) ;
#160 = DIRECTION ( 'NONE',  ( 0.000000000000000000, 1.000000000000000000, 0.000000000000000000 ) ) ;
#161 = EDGE_CURVE ( 'NONE', #180, #5, #121, .T. ) ;
#162 = AXIS2_PLACEMENT_3D ( 'NONE', #210, #24, #42 ) ;
#163 = ORIENTED_EDGE ( 'NONE', *, *, #108, .F. ) ;
#164 = EDGE_CURVE ( 'NONE', #43, #139, #226, .T. ) ;
#165 = CARTESIAN_POINT ( 'NONE',  ( 9.500000000000005329, 0.2999999999999999889, -6.599999999999999645 ) ) ;
#166 = AXIS2_PLACEMENT_3D ( 'NONE', #145, #130, #214 ) ;
#167 = CARTESIAN_POINT ( 'NONE',  ( -9.499999999999994671, 0.2999999999999999889, 6.599999999999999645 ) ) ;
#168 = DIRECTION ( 'NONE',  ( 1.000000000000000000, 0.000000000000000000, 0.000000000000000000 ) ) ;
#169 =( LENGTH_UNIT ( ) NAMED_UNIT ( * ) SI_UNIT ( .MILLI., .METRE. ) );
#170 = CYLINDRICAL_SURFACE ( 'NONE', #166, 1.600000000000000089 ) ;
#171 = PRODUCT_RELATED_PRODUCT_CATEGORY ( 'part', '', ( #20 ) ) ;
#172 = APPLICATION_PROTOCOL_DEFINITION ( 'draft international standard', 'automotive_design', 1998, #149 ) ;
#173 = DIRECTION ( 'NONE',  ( 0.000000000000000000, 0.000000000000000000, -1.000000000000000000 ) ) ;
#174 = EDGE_LOOP ( 'NONE', ( #21, #155, #28, #67 ) ) ;
#175 = CARTESIAN_POINT ( 'NONE',  ( -9.499999999999994671, 0.000000000000000000, -6.599999999999999645 ) ) ;
#176 = MECHANICAL_DESIGN_GEOMETRIC_PRESENTATION_REPRESENTATION (  '', ( #221 ), #40 ) ;
#177 = ADVANCED_FACE ( 'NONE', ( #188 ), #270, .F. ) ;
#178 = VECTOR ( 'NONE', #211, 1000.000000000000000 ) ;
#179 = CARTESIAN_POINT ( 'NONE',  ( -9.499999999999994671, 0.2999999999999999889, 6.599999999999999645 ) ) ;
#180 = VERTEX_POINT ( 'NONE', #229 ) ;
#181 = EDGE_CURVE ( 'NONE', #259, #71, #68, .T. ) ;
#182 = CARTESIAN_POINT ( 'NONE',  ( -9.499999999999994671, 0.2999999999999999889, 6.599999999999999645 ) ) ;
#183 = ORIENTED_EDGE ( 'NONE', *, *, #80, .T. ) ;
#184 = ADVANCED_FACE ( 'NONE', ( #45, #90 ), #38, .T. ) ;
#185 = ORIENTED_EDGE ( 'NONE', *, *, #244, .F. ) ;
#186 = DIRECTION ( 'NONE',  ( -0.000000000000000000, -0.000000000000000000, 1.000000000000000000 ) ) ;
#187 = LINE ( 'NONE', #207, #123 ) ;
#188 = FACE_OUTER_BOUND ( 'NONE', #113, .T. ) ;
#189 = VECTOR ( 'NONE', #196, 1000.000000000000000 ) ;
#190 = SURFACE_STYLE_FILL_AREA ( #18 ) ;
#191 = FACE_BOUND ( 'NONE', #274, .T. ) ;
#192 = VERTEX_POINT ( 'NONE', #175 ) ;
#193 = FILL_AREA_STYLE ('',( #64 ) ) ;
#194 = CARTESIAN_POINT ( 'NONE',  ( 9.500000000000005329, 0.2999999999999999889, 6.599999999999999645 ) ) ;
#195 = EDGE_LOOP ( 'NONE', ( #223, #133, #150, #131 ) ) ;
#196 = DIRECTION ( 'NONE',  ( -0.000000000000000000, -1.000000000000000000, -0.000000000000000000 ) ) ;
#197 = ORIENTED_EDGE ( 'NONE', *, *, #118, .F. ) ;
#198 =( NAMED_UNIT ( * ) SI_UNIT ( $, .STERADIAN. ) SOLID_ANGLE_UNIT ( ) );
#199 = EDGE_LOOP ( 'NONE', ( #254, #9, #216, #94 ) ) ;
#200 = VECTOR ( 'NONE', #82, 1000.000000000000000 ) ;
#201 = CARTESIAN_POINT ( 'NONE',  ( -4.499999999999994671, 0.2999999999999999889, 0.000000000000000000 ) ) ;
#202 =( GEOMETRIC_REPRESENTATION_CONTEXT ( 3 ) GLOBAL_UNCERTAINTY_ASSIGNED_CONTEXT ( ( #117 ) ) GLOBAL_UNIT_ASSIGNED_CONTEXT ( ( #95, #48, #198 ) ) REPRESENTATION_CONTEXT ( 'NONE', 'WORKASPACE' ) );
#203 = EDGE_CURVE ( 'NONE', #115, #43, #72, .T. ) ;
#204 = CARTESIAN_POINT ( 'NONE',  ( -4.499999999999994671, 0.2999999999999999889, 1.600000000000000089 ) ) ;
#205 = ADVANCED_BREP_SHAPE_REPRESENTATION ( 'TO-220', ( #102, #14 ), #7 ) ;
#206 = AXIS2_PLACEMENT_3D ( 'NONE', #93, #215, #148 ) ;
#207 = CARTESIAN_POINT ( 'NONE',  ( -9.499999999999994671, 0.2999999999999999889, 6.599999999999999645 ) ) ;
#208 = AXIS2_PLACEMENT_3D ( 'NONE', #243, #103, #266 ) ;
#209 = CARTESIAN_POINT ( 'NONE',  ( -9.499999999999994671, 0.000000000000000000, 6.599999999999999645 ) ) ;
#210 = CARTESIAN_POINT ( 'NONE',  ( -9.499999999999994671, 0.2999999999999999889, -6.599999999999999645 ) ) ;
#211 = DIRECTION ( 'NONE',  ( -0.000000000000000000, -1.000000000000000000, -0.000000000000000000 ) ) ;
#212 = ORIENTED_EDGE ( 'NONE', *, *, #108, .T. ) ;
#213 = CARTESIAN_POINT ( 'NONE',  ( 9.500000000000005329, 0.2999999999999999889, -6.599999999999999645 ) ) ;
#214 = DIRECTION ( 'NONE',  ( 0.000000000000000000, 0.000000000000000000, -1.000000000000000000 ) ) ;
#215 = DIRECTION ( 'NONE',  ( 0.000000000000000000, 1.000000000000000000, 0.000000000000000000 ) ) ;
#216 = ORIENTED_EDGE ( 'NONE', *, *, #161, .F. ) ;
#217 = UNCERTAINTY_MEASURE_WITH_UNIT (LENGTH_MEASURE( 1.000000000000000082E-05 ), #25, 'distance_accuracy_value', 'NONE');
#218 = EDGE_LOOP ( 'NONE', ( #129, #183, #185, #153 ) ) ;
#219 = EDGE_CURVE ( 'NONE', #180, #192, #248, .T. ) ;
#220 = AXIS2_PLACEMENT_3D ( 'NONE', #251, #1, #228 ) ;
#221 = STYLED_ITEM ( 'NONE', ( #109 ), #102 ) ;
#222 = LINE ( 'NONE', #138, #16 ) ;
#223 = ORIENTED_EDGE ( 'NONE', *, *, #164, .T. ) ;
#224 = SURFACE_STYLE_USAGE ( .BOTH. , #267 ) ;
#225 = FILL_AREA_STYLE_COLOUR ( '', #55 ) ;
#226 = LINE ( 'NONE', #61, #268 ) ;
#227 = CARTESIAN_POINT ( 'NONE',  ( -9.499999999999994671, 0.2999999999999999889, 6.599999999999999645 ) ) ;
#228 = DIRECTION ( 'NONE',  ( 0.000000000000000000, 0.000000000000000000, 1.000000000000000000 ) ) ;
#229 = CARTESIAN_POINT ( 'NONE',  ( -9.499999999999994671, 0.2999999999999999889, -6.599999999999999645 ) ) ;
#230 = ORIENTED_EDGE ( 'NONE', *, *, #164, .F. ) ;
#231 = VECTOR ( 'NONE', #247, 1000.000000000000000 ) ;
#232 = DIRECTION ( 'NONE',  ( 0.000000000000000000, 0.000000000000000000, 1.000000000000000000 ) ) ;
#233 = VERTEX_POINT ( 'NONE', #213 ) ;
#234 = EDGE_CURVE ( 'NONE', #65, #249, #242, .T. ) ;
#235 = LINE ( 'NONE', #179, #106 ) ;
#236 = EDGE_CURVE ( 'NONE', #5, #100, #235, .T. ) ;
#237 = CARTESIAN_POINT ( 'NONE',  ( -9.499999999999994671, 0.000000000000000000, 6.599999999999999645 ) ) ;
#238 = COLOUR_RGB ( '',0.7921568627450980005, 0.8196078431372548767, 0.9333333333333333481 ) ;
#239 = ORIENTED_EDGE ( 'NONE', *, *, #161, .T. ) ;
#240 = DIRECTION ( 'NONE',  ( 0.000000000000000000, 0.000000000000000000, 1.000000000000000000 ) ) ;
#241 = CLOSED_SHELL ( 'NONE', ( #22, #120, #184, #151, #261, #56, #177, #272 ) ) ;
#242 = CIRCLE ( 'NONE', #206, 1.600000000000000089 ) ;
#243 = CARTESIAN_POINT ( 'NONE',  ( 0.000000000000000000, 0.2999999999999999889, 0.000000000000000000 ) ) ;
#244 = EDGE_CURVE ( 'NONE', #71, #259, #255, .T. ) ;
#245 = FACE_OUTER_BOUND ( 'NONE', #195, .T. ) ;
#246 = DIRECTION ( 'NONE',  ( -0.000000000000000000, -0.000000000000000000, 1.000000000000000000 ) ) ;
#247 = DIRECTION ( 'NONE',  ( -1.000000000000000000, -0.000000000000000000, -0.000000000000000000 ) ) ;
#248 = LINE ( 'NONE', #70, #104 ) ;
#249 = VERTEX_POINT ( 'NONE', #4 ) ;
#250 = STYLED_ITEM ( 'NONE', ( #156 ), #205 ) ;
#251 = CARTESIAN_POINT ( 'NONE',  ( -4.499999999999994671, 0.000000000000000000, 0.000000000000000000 ) ) ;
#252 = AXIS2_PLACEMENT_3D ( 'NONE', #132, #27, #232 ) ;
#253 = DIRECTION ( 'NONE',  ( -1.000000000000000000, 0.000000000000000000, -0.000000000000000000 ) ) ;
#254 = ORIENTED_EDGE ( 'NONE', *, *, #118, .T. ) ;
#255 = CIRCLE ( 'NONE', #252, 1.600000000000000089 ) ;
#256 = CARTESIAN_POINT ( 'NONE',  ( -4.499999999999994671, 0.000000000000000000, 1.600000000000000089 ) ) ;
#257 = ORIENTED_EDGE ( 'NONE', *, *, #97, .F. ) ;
#258 = SURFACE_SIDE_STYLE ('',( #275 ) ) ;
#259 = VERTEX_POINT ( 'NONE', #256 ) ;
#260 = FACE_OUTER_BOUND ( 'NONE', #218, .T. ) ;
#261 = ADVANCED_FACE ( 'NONE', ( #273 ), #152, .F. ) ;
#262 = APPLICATION_CONTEXT ( 'automotive_design' ) ;
#263 = LINE ( 'NONE', #119, #231 ) ;
#264 = EDGE_LOOP ( 'NONE', ( #230, #98, #197, #163 ) ) ;
#265 = EDGE_CURVE ( 'NONE', #249, #71, #114, .T. ) ;
#266 = DIRECTION ( 'NONE',  ( 0.000000000000000000, -0.000000000000000000, -1.000000000000000000 ) ) ;
#267 = SURFACE_SIDE_STYLE ('',( #190 ) ) ;
#268 = VECTOR ( 'NONE', #105, 1000.000000000000000 ) ;
#269 = AXIS2_PLACEMENT_3D ( 'NONE', #141, #34, #33 ) ;
#270 = PLANE ( 'NONE',  #146 ) ;
#271 = PLANE ( 'NONE',  #208 ) ;
#272 = ADVANCED_FACE ( 'NONE', ( #23 ), #170, .F. ) ;
#273 = FACE_OUTER_BOUND ( 'NONE', #6, .T. ) ;
#274 = EDGE_LOOP ( 'NONE', ( #2, #111 ) ) ;
#275 = SURFACE_STYLE_FILL_AREA ( #193 ) ;
#276 = AXIS2_PLACEMENT_3D ( 'NONE', #37, #127, #143 ) ;
ENDSEC;
END-ISO-10303-21;
